<svg width="54" height="58" viewBox="0 0 54 58" fill="none" xmlns="http://www.w3.org/2000/svg">
<path fill-rule="evenodd" clip-rule="evenodd" d="M7.29434 35.3101C6.254 34.2809 4.93274 33.2407 3.12875 32.0151C-0.583421 29.5424 -1.07916 24.2787 2.10828 21.1565L2.38083 20.8895C3.7504 19.548 5.51471 18.8512 7.29434 18.7992V4.57101C7.29434 0.95814 11.2932 -1.22207 14.33 0.735102L30.5568 11.193C32.0344 10.073 33.3361 9.20653 34.3055 8.69056C35.8231 7.88285 37.467 7.20702 38.8855 6.68729C41.9129 5.57804 45.1378 6.79716 46.9419 9.27631C49.1778 12.3488 48.7612 16.6082 45.9723 19.1891L45.8781 19.2764C45.4802 19.6446 45.0477 19.965 44.5911 20.2378L51.5413 24.717C54.3298 26.5141 54.3298 30.5917 51.5413 32.3889L14.33 56.3708C11.2932 58.3279 7.29434 56.1477 7.29434 52.5349V35.3101ZM40.0069 9.74798C41.5217 9.19297 43.264 9.76202 44.3063 11.1943C45.5699 12.9308 45.3345 15.3381 43.7583 16.7968L43.664 16.884C43.2783 17.241 42.8206 17.5317 42.313 17.7463C36.9616 20.0081 32.9915 22.4629 29.6162 25.8814C26.2586 29.2819 23.5724 33.5533 20.6698 39.3124C20.4692 39.7106 20.2075 40.0713 19.8989 40.3736L19.7349 40.5342C18.2946 41.945 15.9831 41.9204 14.5732 40.4793C14.2508 40.1498 13.9825 39.7432 13.7771 39.2789C12.8521 37.1886 11.8583 35.4956 10.4503 33.9045C9.05524 32.328 7.30784 30.9131 4.9538 29.3142L4.94689 29.3095L4.93993 29.3049C2.94763 27.9814 2.68055 25.1589 4.38925 23.4852L4.6618 23.2182C6.24419 21.6682 8.77555 21.6682 10.3579 23.2182L10.9736 23.8213L10.9846 23.832L10.9958 23.8426L16.1755 28.7283L17.6458 30.1152L18.6896 28.3844C20.8748 24.7605 24.2869 21.0105 27.647 17.9025C31.0215 14.7811 34.1982 12.4403 35.8371 11.568C37.1749 10.856 38.6676 10.2387 40.0069 9.74798Z" fill="#D9D9D9"/>
</svg>
